<svg width="27" height="29" viewBox="0 0 27 29" fill="none" xmlns="http://www.w3.org/2000/svg">
<path d="M23.641 14.9721C23.5395 14.9134 23.428 14.8571 23.3128 14.8021C23.428 14.7471 23.5395 14.6909 23.641 14.6321C24.2154 14.3062 24.7195 13.8702 25.1244 13.349C25.5292 12.8279 25.8268 12.232 25.9999 11.5956C26.173 10.9592 26.2183 10.295 26.1332 9.64109C26.048 8.98719 25.834 8.35656 25.5036 7.78551C25.1733 7.21446 24.7329 6.71426 24.208 6.31372C23.6831 5.91317 23.084 5.6202 22.4452 5.45165C21.8064 5.28311 21.1404 5.24233 20.4858 5.33166C19.8311 5.42099 19.2006 5.63866 18.6305 5.97215C18.5291 6.0309 18.4238 6.09715 18.3199 6.1709C18.3299 6.0459 18.3362 5.9209 18.3362 5.7959C18.3362 4.46982 17.8083 3.19805 16.8686 2.26036C15.929 1.32268 14.6546 0.795898 13.3257 0.795898C11.9969 0.795898 10.7225 1.32268 9.78281 2.26036C8.84318 3.19805 8.31529 4.46982 8.31529 5.7959C8.31529 5.9134 8.31529 6.0384 8.33158 6.1709C8.22761 6.09965 8.12239 6.0309 8.02093 5.97215C7.45089 5.63866 6.82038 5.42099 6.16569 5.33166C5.51101 5.24233 4.84508 5.28311 4.20626 5.45165C3.56743 5.6202 2.96832 5.91317 2.44342 6.31372C1.91852 6.71426 1.4782 7.21446 1.1478 7.78551C0.817409 8.35656 0.603467 8.98719 0.518297 9.64109C0.433127 10.295 0.47841 10.9592 0.651539 11.5956C0.824668 12.232 1.12222 12.8279 1.52707 13.349C1.93193 13.8702 2.43608 14.3062 3.0105 14.6321C3.11196 14.6909 3.22344 14.7471 3.33868 14.8021C3.22344 14.8571 3.11196 14.9134 3.0105 14.9721C2.43608 15.2981 1.93193 15.7341 1.52707 16.2553C1.12222 16.7764 0.824668 17.3723 0.651539 18.0087C0.47841 18.6451 0.433127 19.3093 0.518297 19.9632C0.603467 20.6171 0.817409 21.2477 1.1478 21.8188C1.4782 22.3898 1.91852 22.89 2.44342 23.2906C2.96832 23.6911 3.56743 23.9841 4.20626 24.1526C4.84508 24.3212 5.51101 24.362 6.16569 24.2726C6.82038 24.1833 7.45089 23.9656 8.02093 23.6321C8.12239 23.5734 8.22761 23.5071 8.33158 23.4334C8.32156 23.5584 8.31529 23.6834 8.31529 23.8021C8.31529 25.1282 8.84318 26.4 9.78281 27.3377C10.7225 28.2754 11.9969 28.8021 13.3257 28.8021C14.6546 28.8021 15.929 28.2754 16.8686 27.3377C17.8083 26.4 18.3362 25.1282 18.3362 23.8021C18.3362 23.6846 18.3299 23.5596 18.3199 23.4334C18.4238 23.5046 18.5291 23.5734 18.6305 23.6321C19.3895 24.0709 20.2511 24.302 21.1282 24.3021C21.569 24.3016 22.0077 24.2436 22.4334 24.1296C23.3907 23.8736 24.2503 23.3401 24.9036 22.5965C25.557 21.8529 25.9747 20.9327 26.1039 19.9522C26.2332 18.9718 26.0682 17.975 25.6298 17.0881C25.1914 16.2012 24.4992 15.464 23.641 14.9696V14.9721ZM13.3257 18.3021C12.632 18.3021 11.9539 18.0969 11.3772 17.7123C10.8004 17.3277 10.3509 16.7811 10.0854 16.1415C9.81994 15.502 9.75048 14.7983 9.88581 14.1193C10.0211 13.4404 10.3552 12.8168 10.8457 12.3273C11.3362 11.8378 11.9611 11.5044 12.6415 11.3694C13.3218 11.2344 14.027 11.3037 14.6679 11.5686C15.3088 11.8335 15.8566 12.2821 16.2419 12.8577C16.6273 13.4332 16.833 14.1099 16.833 14.8021C16.833 15.7304 16.4635 16.6206 15.8058 17.277C15.148 17.9334 14.2559 18.3021 13.3257 18.3021Z" fill="#EDA6AC"/>
</svg>
